<svg xmlns="http://www.w3.org/2000/svg" width="1040" height="382" viewBox="0 0 1040 382"><path d="M219.55,24.52l2.39,0a119.51,119.51,0,0,1-.7,15.22c-1.29,11.45-5,27.24-15.18,37.42-13.72,13.69-37.39,15.73-50.28,15.73l-2.38,0a119.51,119.51,0,0,1,.7-15.22c1.28-11.45,5-27.24,15.16-37.41,13.74-13.7,37.4-15.74,50.29-15.74m0-24.83c-18.5,0-48.22,3.45-67.81,23-29.62,29.51-22.54,82.23-22.22,84.46l1.19,8.38,8.37,1.21a126.21,126.21,0,0,0,16.7,1c18.5,0,48.22-3.44,67.81-23,29.63-29.52,22.54-82.23,22.23-84.46l-1.19-8.38L236.26.7a125.44,125.44,0,0,0-16.71-1Z" fill="#41a4a9"/><path d="M130.71,247.81l-1.19-8.38c-.32-2.23-7.4-55,22.22-84.46s82.29-22.3,84.52-22l8.37,1.21,1.19,8.37c.31,2.23,7.4,55-22.23,84.47s-82.28,22.3-84.51,22Z" fill="#67b6ba"/><path d="M130.71,380.09l-1.19-8.38c-.32-2.23-7.4-54.94,22.22-84.46s82.29-22.3,84.52-22l8.37,1.21,1.19,8.38c.31,2.23,7.4,54.95-22.23,84.46s-82.28,22.3-84.51,22Z" fill="#a3dbdf"/><path d="M113.82,181.82,105.45,183c-2.23.31-54.95,7.4-84.46-22.22S-1.32,78.5-1,76.27l1.2-8.38,8.38-1.18c2.23-.32,55-7.4,84.47,22.22s22.29,82.28,22,84.51Z" fill="#247272"/><path d="M113.82,314.11l-8.37,1.18c-2.23.32-54.95,7.4-84.46-22.21s-22.31-82.3-22-84.53l1.2-8.37L8.59,199c2.23-.31,55-7.4,84.47,22.23s22.29,82.28,22,84.51Z" fill="#8dc8cb"/><path d="M471.38,76.14v37.21H452l-1.74-19.3H412.91V226.6l18.83,3.23v14.56H371.31V229.83l18.83-3.23V94.05H352.7l-1.62,19.3H331.55V76.14Z" fill="#243c4a"/><path d="M472.54,134V119.36h39.17l2.2,18.14a43.64,43.64,0,0,1,13.11-15,30.51,30.51,0,0,1,17.86-5.43,38.84,38.84,0,0,1,5.49.41,31.7,31.7,0,0,1,4.33.86l-3,21.15-13-.69q-9,0-15.13,4.21a27.26,27.26,0,0,0-9.48,11.85V226.6L533,229.83v14.56H472.54V229.83l18.83-3.23V137.27Z" fill="#243c4a"/><path d="M620.57,246.82q-26.12,0-41.54-17.39T563.6,184.31v-5.09q0-26.7,15.89-44.43t37.62-17.74q25.18,0,38.19,15.25t13,40.68v14.21H587.18l-.35.58q.34,18,9.13,29.64T620.57,229a57.11,57.11,0,0,0,20.28-3.3,46.44,46.44,0,0,0,15.08-9.07l8.9,14.79q-6.71,6.48-17.74,10.92T620.57,246.82ZM617.11,135q-11.45,0-19.53,9.65t-9.94,24.21l.23.58h57.66v-3q0-13.39-7.16-22.41T617.11,135Z" fill="#243c4a"/><path d="M682.86,78.8V64.13h41.6V226.6l18.84,3.23v14.56H682.86V229.83l18.84-3.23V82Z" fill="#243c4a"/><path d="M752.66,78.8V64.13h41.6V226.6l18.84,3.23v14.56H752.66V229.83l18.84-3.23V82Z" fill="#243c4a"/><path d="M825.58,229.83l18.84-3.23V137.27L825.58,134V119.36h41.61V226.6L886,229.83v14.56H825.58ZM867.19,87.35H844.42V64.13h22.77Z" fill="#243c4a"/><path d="M994.3,158.65H977.2l-3.7-15a30.77,30.77,0,0,0-10.46-6.3A40.29,40.29,0,0,0,948.77,135q-12.13,0-18,5.32a16.67,16.67,0,0,0-5.9,12.83,14.32,14.32,0,0,0,5.2,11.67q5.21,4.28,21.15,7.62,23.68,5.08,35.24,13.81T998,209.61q0,16.65-13.46,26.93t-35.19,10.28a91.69,91.69,0,0,1-25.54-3.29A67.81,67.81,0,0,1,903.59,234l-.12-28.54h17.11l4.27,16.76a23.81,23.81,0,0,0,10.69,5.2A59.07,59.07,0,0,0,949.35,229q12.14,0,19-4.92t6.88-12.88a15.49,15.49,0,0,0-5.72-12.36q-5.73-4.86-21.67-8.44-22.77-5-34.32-13.52T902,153.8q0-15.26,13-26t33.8-10.75a81.93,81.93,0,0,1,25.54,3.7A53.34,53.34,0,0,1,993.15,131Z" fill="#243c4a"/><path d="M372.68,275.57h18.84c7.36,0,11.86,4.44,11.86,10.78a9.62,9.62,0,0,1-7.42,9.71c4.5.7,8.24,5.32,8.24,10.4,0,6.79-4.5,11.41-12.24,11.41H372.68Zm17.95,18.33c4.76,0,7.29-2.92,7.29-6.79s-2.53-6.84-7.29-6.84H378V293.9Zm.25,19.28c4.95,0,7.87-2.79,7.87-7.29,0-3.87-2.67-7.3-7.87-7.3H378v14.59Z" fill="#243746"/><path d="M422.29,300l-16.68-24.42h6.15l13.13,19.66L438,275.57h6.15L427.55,300v17.88h-5.26Z" fill="#243746"/><path d="M501.75,291.17l-9.45,26.7h-5.7l-9.45-26.7v26.7H464.34v-42.3H482l7.42,21.56,7.42-21.56h17.7v42.3H501.75Z" fill="#243746"/><path d="M520.84,275.57h32.09v10.66H533.65v4.94h18.84v10.66H533.65v5.39h19.28v10.65H520.84Z" fill="#243746"/><path d="M558.54,275.57h18.9c13.32,0,23.21,7.61,23.21,21.12s-9.89,21.18-23.15,21.18h-19Zm18.9,31.14a9.77,9.77,0,0,0,10.21-10c0-5.71-3.3-10-10.15-10h-6.15v20Z" fill="#243746"/><path d="M604.61,275.57h12.81v42.3H604.61Z" fill="#243746"/><path d="M651.86,312.42H635.63L634,317.87H620.09l15.6-42.3H651.8l15.6,42.3H653.51Zm-12.94-10.65h9.64l-4.82-14.91Z" fill="#243746"/><path d="M658.71,275.57h14.52l9.14,28.48,9.13-28.48H706l-15.6,42.3H674.31Z" fill="#243746"/><path d="M708.75,275.57h12.81v42.3H708.75Z" fill="#243746"/><path d="M740.51,295.17v22.7H727.7v-42.3h13.19l14.72,21.31V275.57h12.81v42.3H756.11Z" fill="#243746"/><path d="M774.66,275.57h32.09v10.66H787.47v4.94H806.3v10.66H787.47v5.39h19.28v10.65H774.66Z" fill="#243746"/><path d="M1010.15,143a14.93,14.93,0,1,1,14.92,14.93A14.88,14.88,0,0,1,1010.15,143Zm2.32,0a12.57,12.57,0,1,0,25.14,0,12.57,12.57,0,0,0-25.14,0Zm12.18,1.83h-2.81v6.76h-2.54V134.43h7c3.17,0,5.7,2,5.7,5.21a5,5,0,0,1-4.36,5.07l4.58,6.83h-3.1Zm-2.81-8.23v6h4.43a3,3,0,1,0,0-6Z" fill="#243c4a"/></svg>