<?xml version="1.0" encoding="utf-8"?>
<!-- Generator: Adobe Illustrator 24.1.0, SVG Export Plug-In . SVG Version: 6.00 Build 0)  -->
<svg version="1.1" id="Layer_1" xmlns="http://www.w3.org/2000/svg" xmlns:xlink="http://www.w3.org/1999/xlink" x="0px" y="0px"
	 viewBox="0 0 1000 1000" style="enable-background:new 0 0 1000 1000;" xml:space="preserve">
<style type="text/css">
	.st0{fill:#41A4A9;}
	.st1{fill:#67B6BA;}
	.st2{fill:#A3DBDF;}
	.st3{fill:#247272;}
	.st4{fill:#8DC8CB;}
</style>
<g>
	<g>
		<path class="st0" d="M753.93,64.88c2.16,0,4.24,0.02,6.25,0.06c0.19,11.19-0.16,24.94-1.83,39.78
			c-3.36,29.93-12.97,71.18-39.67,97.79c-35.86,35.78-97.72,41.12-131.4,41.12c-2.15,0-4.23-0.02-6.23-0.06
			c-0.19-11.18,0.16-24.93,1.82-39.77c3.36-29.93,12.96-71.19,39.64-97.79C658.4,70.22,720.25,64.88,753.93,64.88 M753.93,0
			C705.59,0,627.92,8.99,576.7,60.07c-77.41,77.13-58.89,214.92-58.07,220.75l3.1,21.9l21.89,3.16c1.97,0.28,18.99,2.62,43.66,2.62
			c48.34,0,126.03-8.99,177.22-60.07c77.43-77.15,58.92-214.93,58.09-220.75l-3.1-21.9L797.6,2.63C795.64,2.34,778.6,0,753.93,0
			L753.93,0z"/>
	</g>
	<g>
		<path class="st1" d="M521.73,648.47l-3.1-21.9c-0.82-5.83-19.34-143.61,58.07-220.75c77.37-77.16,215.08-58.29,220.9-57.45
			l21.89,3.16l3.1,21.9c0.82,5.83,19.33,143.61-58.09,220.75c-77.32,77.14-215.05,58.28-220.88,57.44L521.73,648.47z"/>
	</g>
	<g>
		<path class="st2" d="M521.73,994.22l-3.1-21.9c-0.82-5.83-19.34-143.61,58.07-220.75c77.37-77.16,215.08-58.29,220.9-57.45
			l21.89,3.16l3.1,21.9c0.82,5.83,19.33,143.61-58.09,220.75c-77.32,77.14-215.05,58.28-220.88,57.44L521.73,994.22z"/>
	</g>
	<g>
		<path class="st3" d="M477.61,476.01l-21.9,3.1c-5.83,0.82-143.61,19.34-220.75-58.07c-77.16-77.37-58.29-215.08-57.45-220.9
			l3.16-21.89l21.9-3.1c5.83-0.82,143.61-19.33,220.75,58.09c77.14,77.32,58.28,215.05,57.44,220.88L477.61,476.01z"/>
	</g>
	<g>
		<path class="st4" d="M477.61,821.75l-21.9,3.1c-5.83,0.82-143.61,19.34-220.75-58.07c-77.16-77.37-58.29-215.08-57.45-220.9
			l3.16-21.89l21.9-3.1c5.83-0.82,143.61-19.33,220.75,58.09c77.14,77.32,58.28,215.05,57.44,220.88L477.61,821.75z"/>
	</g>
</g>
</svg>
